<?xml version="1.0" encoding="UTF-8" standalone="no"?>
<!-- Created with Digital by H.Neemann -->
<!-- created: Sun Sep 05 20:11:53 ART 2021 -->

<svg
   xmlns:svg="http://www.w3.org/2000/svg"
   xmlns="http://www.w3.org/2000/svg"
   width="83.1mm"
   height="38.1mm"
   viewBox="283 98 554 254">
<g stroke-linecap="square">
<path d="M 300,160 L 300,240 L 560,240" stroke="#0000b2" stroke-width="4.0" fill="none"/>
<path d="M 640,320 L 760,320" stroke="#0000b2" stroke-width="4.0" fill="none"/>
<path d="M 300,240 L 300,340 L 560,340" stroke="#0000b2" stroke-width="4.0" fill="none"/>
<path d="M 380,160 L 380,200 L 560,200" stroke="#0000b2" stroke-width="4.0" fill="none"/>
<path d="M 640,220 L 760,220" stroke="#0000b2" stroke-width="4.0" fill="none"/>
<path d="M 380,200 L 380,300 L 480,300" stroke="#0000b2" stroke-width="4.0" fill="none"/>
<path d="M 520,300 L 560,300" stroke="#0000b2" stroke-width="4.0" fill="none"/>
<g>
<circle cx="300.0" cy="240.0" r="4.0" stroke="#0000b2" stroke-width="4.0" fill="#0000b2" />
<circle cx="380.0" cy="200.0" r="4.0" stroke="#0000b2" stroke-width="4.0" fill="#0000b2" />
</g>
<g>
<path d="M 315,129 L 315,159 L 285,159 L 285,129 Z" stroke="#000000" stroke-width="4.0" fill="none"/>
<circle cx="300.0" cy="144.0" r="9.0" stroke="#000000" stroke-width="4.0" fill="none" />
<text text-anchor="start" x="300.0" y="124.0" fill="#000000" style="font-size:24px" transform="rotate(-90,300.0,115.0)" ><tspan style="font-style:italic;">E</tspan></text>
<circle cx="300.0" cy="160.0" r="2.0" stroke="#b20000" stroke-width="4.0" fill="#b20000" />
</g>
<g>
<path d="M 395,129 L 395,159 L 365,159 L 365,129 Z" stroke="#000000" stroke-width="4.0" fill="none"/>
<circle cx="380.0" cy="144.0" r="9.0" stroke="#000000" stroke-width="4.0" fill="none" />
<text text-anchor="start" x="380.0" y="124.0" fill="#000000" style="font-size:24px" transform="rotate(-90,380.0,115.0)" ><tspan style="font-style:italic;">S</tspan></text>
<circle cx="380.0" cy="160.0" r="2.0" stroke="#b20000" stroke-width="4.0" fill="#b20000" />
</g>
<g>
<path d="M 610,250 L 561,250 L 561,190 L 610,190 C 620,190 640,200 639,220 C 639,240 620,250 610,250 Z" stroke="#000000" stroke-width="4.0" fill="none"/>
<circle cx="560.0" cy="200.0" r="2.0" stroke="#0000b2" stroke-width="4.0" fill="#0000b2" />
<circle cx="560.0" cy="240.0" r="2.0" stroke="#0000b2" stroke-width="4.0" fill="#0000b2" />
<circle cx="640.0" cy="220.0" r="2.0" stroke="#b20000" stroke-width="4.0" fill="#b20000" />
</g>
<g>
<circle cx="776.0" cy="220.0" r="9.0" stroke="#000000" stroke-width="4.0" fill="none" />
<circle cx="776.0" cy="220.0" r="15.0" stroke="#000000" stroke-width="4.0" fill="none" />
<text text-anchor="start" x="805.0" y="229.0" fill="#000000" style="font-size:24px"><tspan style="font-style:italic;">Y1</tspan></text>
<circle cx="760.0" cy="220.0" r="2.0" stroke="#0000b2" stroke-width="4.0" fill="#0000b2" />
</g>
<g>
<path d="M 481,288 L 499,300 L 481,312 Z" stroke="#000000" stroke-width="4.0" fill="none"/>
<circle cx="510.0" cy="300.0" r="9.0" stroke="#000000" stroke-width="4.0" fill="none" />
<circle cx="480.0" cy="300.0" r="2.0" stroke="#0000b2" stroke-width="4.0" fill="#0000b2" />
<circle cx="520.0" cy="300.0" r="2.0" stroke="#b20000" stroke-width="4.0" fill="#b20000" />
</g>
<g>
<path d="M 610,350 L 561,350 L 561,290 L 610,290 C 620,290 640,300 639,320 C 639,340 620,350 610,350 Z" stroke="#000000" stroke-width="4.0" fill="none"/>
<circle cx="560.0" cy="300.0" r="2.0" stroke="#0000b2" stroke-width="4.0" fill="#0000b2" />
<circle cx="560.0" cy="340.0" r="2.0" stroke="#0000b2" stroke-width="4.0" fill="#0000b2" />
<circle cx="640.0" cy="320.0" r="2.0" stroke="#b20000" stroke-width="4.0" fill="#b20000" />
</g>
<g>
<circle cx="776.0" cy="320.0" r="9.0" stroke="#000000" stroke-width="4.0" fill="none" />
<circle cx="776.0" cy="320.0" r="15.0" stroke="#000000" stroke-width="4.0" fill="none" />
<text text-anchor="start" x="805.0" y="329.0" fill="#000000" style="font-size:24px"><tspan style="font-style:italic;">Y2</tspan></text>
<circle cx="760.0" cy="320.0" r="2.0" stroke="#0000b2" stroke-width="4.0" fill="#0000b2" />
</g>
</g>
</svg>