<?xml version="1.0" encoding="UTF-8" standalone="no"?>
<!-- Created with Digital by H.Neemann -->
<!-- created: Sun Sep 05 21:00:21 ART 2021 -->

<svg
   xmlns:svg="http://www.w3.org/2000/svg"
   xmlns="http://www.w3.org/2000/svg"
   width="98.55mm"
   height="38.4mm"
   viewBox="163 78 657 256">
<g stroke-linecap="square">
<path d="M 260,140 L 260,240 L 440,240" stroke="#0000b2" stroke-width="4.0" fill="none"/>
<path d="M 400,320 L 440,320" stroke="#0000b2" stroke-width="4.0" fill="none"/>
<path d="M 260,240 L 260,320 L 360,320" stroke="#0000b2" stroke-width="4.0" fill="none"/>
<path d="M 700,260 L 760,260" stroke="#0000b2" stroke-width="4.0" fill="none"/>
<path d="M 400,200 L 440,200" stroke="#0000b2" stroke-width="4.0" fill="none"/>
<path d="M 180,140 L 180,200 L 360,200" stroke="#0000b2" stroke-width="4.0" fill="none"/>
<path d="M 180,200 L 180,280 L 440,280" stroke="#0000b2" stroke-width="4.0" fill="none"/>
<path d="M 520,220 L 580,220 L 580,240 L 620,240 L 624,240" stroke="#0000b2" stroke-width="4.0" fill="none"/>
<path d="M 520,300 L 580,300 L 580,280 L 620,280 L 624,280" stroke="#0000b2" stroke-width="4.0" fill="none"/>
<g>
<circle cx="260.0" cy="240.0" r="4.0" stroke="#0000b2" stroke-width="4.0" fill="#0000b2" />
<circle cx="180.0" cy="200.0" r="4.0" stroke="#0000b2" stroke-width="4.0" fill="#0000b2" />
</g>
<g>
<path d="M 195,109 L 195,139 L 165,139 L 165,109 Z" stroke="#000000" stroke-width="4.0" fill="none"/>
<circle cx="180.0" cy="124.0" r="9.0" stroke="#000000" stroke-width="4.0" fill="none" />
<text text-anchor="start" x="180.0" y="104.0" fill="#000000" style="font-size:24px" transform="rotate(-90,180.0,95.0)" ><tspan style="font-style:italic;">a</tspan></text>
<circle cx="180.0" cy="140.0" r="2.0" stroke="#b20000" stroke-width="4.0" fill="#b20000" />
</g>
<g>
<path d="M 275,109 L 275,139 L 245,139 L 245,109 Z" stroke="#000000" stroke-width="4.0" fill="none"/>
<circle cx="260.0" cy="124.0" r="9.0" stroke="#000000" stroke-width="4.0" fill="none" />
<text text-anchor="start" x="260.0" y="104.0" fill="#000000" style="font-size:24px" transform="rotate(-90,260.0,95.0)" ><tspan style="font-style:italic;">b</tspan></text>
<circle cx="260.0" cy="140.0" r="2.0" stroke="#b20000" stroke-width="4.0" fill="#b20000" />
</g>
<g>
<path d="M 361,188 L 379,200 L 361,212 Z" stroke="#000000" stroke-width="4.0" fill="none"/>
<circle cx="390.0" cy="200.0" r="9.0" stroke="#000000" stroke-width="4.0" fill="none" />
<circle cx="360.0" cy="200.0" r="2.0" stroke="#0000b2" stroke-width="4.0" fill="#0000b2" />
<circle cx="400.0" cy="200.0" r="2.0" stroke="#b20000" stroke-width="4.0" fill="#b20000" />
</g>
<g>
<path d="M 490,250 L 441,250 L 441,190 L 490,190 C 500,190 520,200 519,220 C 519,240 500,250 490,250 Z" stroke="#000000" stroke-width="4.0" fill="none"/>
<circle cx="440.0" cy="200.0" r="2.0" stroke="#0000b2" stroke-width="4.0" fill="#0000b2" />
<circle cx="440.0" cy="240.0" r="2.0" stroke="#0000b2" stroke-width="4.0" fill="#0000b2" />
<circle cx="520.0" cy="220.0" r="2.0" stroke="#b20000" stroke-width="4.0" fill="#b20000" />
</g>
<g>
<path d="M 490,330 L 441,330 L 441,270 L 490,270 C 500,270 520,280 519,300 C 519,320 500,330 490,330 Z" stroke="#000000" stroke-width="4.0" fill="none"/>
<circle cx="440.0" cy="280.0" r="2.0" stroke="#0000b2" stroke-width="4.0" fill="#0000b2" />
<circle cx="440.0" cy="320.0" r="2.0" stroke="#0000b2" stroke-width="4.0" fill="#0000b2" />
<circle cx="520.0" cy="300.0" r="2.0" stroke="#b20000" stroke-width="4.0" fill="#b20000" />
</g>
<g>
<path d="M 361,308 L 379,320 L 361,332 Z" stroke="#000000" stroke-width="4.0" fill="none"/>
<circle cx="390.0" cy="320.0" r="9.0" stroke="#000000" stroke-width="4.0" fill="none" />
<circle cx="360.0" cy="320.0" r="2.0" stroke="#0000b2" stroke-width="4.0" fill="#0000b2" />
<circle cx="400.0" cy="320.0" r="2.0" stroke="#b20000" stroke-width="4.0" fill="#b20000" />
</g>
<g>
<path d="M 650,290 L 620,290 C 630,274 630,246 620,230 L 640,230 C 670,230 690,240 700,260 C 690,280 670,290 650,290 Z" stroke="#000000" stroke-width="4.0" fill="none"/>
<circle cx="620.0" cy="240.0" r="2.0" stroke="#0000b2" stroke-width="4.0" fill="#0000b2" />
<circle cx="620.0" cy="280.0" r="2.0" stroke="#0000b2" stroke-width="4.0" fill="#0000b2" />
<circle cx="700.0" cy="260.0" r="2.0" stroke="#b20000" stroke-width="4.0" fill="#b20000" />
</g>
<g>
<circle cx="776.0" cy="260.0" r="9.0" stroke="#000000" stroke-width="4.0" fill="none" />
<circle cx="776.0" cy="260.0" r="15.0" stroke="#000000" stroke-width="4.0" fill="none" />
<text text-anchor="start" x="805.0" y="269.0" fill="#000000" style="font-size:24px"><tspan style="font-style:italic;">s</tspan></text>
<circle cx="760.0" cy="260.0" r="2.0" stroke="#0000b2" stroke-width="4.0" fill="#0000b2" />
</g>
</g>
</svg>