<?xml version="1.0" encoding="UTF-8" standalone="no"?>
<!-- Created with Digital by H.Neemann -->
<!-- created: Sun Sep 05 10:32:35 ART 2021 -->

<svg
   xmlns:svg="http://www.w3.org/2000/svg"
   xmlns="http://www.w3.org/2000/svg"
   width="111.9mm"
   height="35.1mm"
   viewBox="176 123 746 234">
<g stroke-linecap="square">
<path d="M 300,180 L 300,240 L 360,240 L 364,240" stroke="#0000b2" stroke-width="4.0" fill="none"/>
<path d="M 460,160 L 660,160 L 660,240 L 720,240 L 724,240" stroke="#0000b2" stroke-width="4.0" fill="none"/>
<path d="M 300,140 L 300,180 L 360,180 L 364,180" stroke="#0000b2" stroke-width="4.0" fill="none"/>
<path d="M 240,340 L 480,340 L 480,300 L 540,300 L 544,300" stroke="#0000b2" stroke-width="4.0" fill="none"/>
<path d="M 460,260 L 540,260 L 544,260" stroke="#0000b2" stroke-width="4.0" fill="none"/>
<path d="M 820,260 L 860,260" stroke="#0000b2" stroke-width="4.0" fill="none"/>
<path d="M 240,280 L 360,280 L 364,280" stroke="#0000b2" stroke-width="4.0" fill="none"/>
<path d="M 640,280 L 720,280 L 724,280" stroke="#0000b2" stroke-width="4.0" fill="none"/>
<path d="M 240,140 L 300,140 L 360,140 L 364,140" stroke="#0000b2" stroke-width="4.0" fill="none"/>
<g>
<circle cx="300.0" cy="180.0" r="4.0" stroke="#0000b2" stroke-width="4.0" fill="#0000b2" />
<circle cx="300.0" cy="140.0" r="4.0" stroke="#0000b2" stroke-width="4.0" fill="#0000b2" />
</g>
<g>
<path d="M 390,190 L 360,190 C 370,174 370,146 360,130 L 380,130 C 410,130 430,140 440,160 C 430,180 410,190 390,190 Z" stroke="#000000" stroke-width="4.0" fill="none"/>
<circle cx="450.0" cy="160.0" r="9.0" stroke="#000000" stroke-width="4.0" fill="none" />
<circle cx="360.0" cy="140.0" r="2.0" stroke="#0000b2" stroke-width="4.0" fill="#0000b2" />
<circle cx="360.0" cy="180.0" r="2.0" stroke="#0000b2" stroke-width="4.0" fill="#0000b2" />
<circle cx="460.0" cy="160.0" r="2.0" stroke="#b20000" stroke-width="4.0" fill="#b20000" />
</g>
<g>
<path d="M 390,290 L 360,290 C 370,274 370,246 360,230 L 380,230 C 410,230 430,240 440,260 C 430,280 410,290 390,290 Z" stroke="#000000" stroke-width="4.0" fill="none"/>
<circle cx="450.0" cy="260.0" r="9.0" stroke="#000000" stroke-width="4.0" fill="none" />
<circle cx="360.0" cy="240.0" r="2.0" stroke="#0000b2" stroke-width="4.0" fill="#0000b2" />
<circle cx="360.0" cy="280.0" r="2.0" stroke="#0000b2" stroke-width="4.0" fill="#0000b2" />
<circle cx="460.0" cy="260.0" r="2.0" stroke="#b20000" stroke-width="4.0" fill="#b20000" />
</g>
<g>
<path d="M 570,310 L 540,310 C 550,294 550,266 540,250 L 560,250 C 590,250 610,260 620,280 C 610,300 590,310 570,310 Z" stroke="#000000" stroke-width="4.0" fill="none"/>
<circle cx="630.0" cy="280.0" r="9.0" stroke="#000000" stroke-width="4.0" fill="none" />
<circle cx="540.0" cy="260.0" r="2.0" stroke="#0000b2" stroke-width="4.0" fill="#0000b2" />
<circle cx="540.0" cy="300.0" r="2.0" stroke="#0000b2" stroke-width="4.0" fill="#0000b2" />
<circle cx="640.0" cy="280.0" r="2.0" stroke="#b20000" stroke-width="4.0" fill="#b20000" />
</g>
<g>
<path d="M 750,290 L 720,290 C 730,274 730,246 720,230 L 740,230 C 770,230 790,240 800,260 C 790,280 770,290 750,290 Z" stroke="#000000" stroke-width="4.0" fill="none"/>
<circle cx="810.0" cy="260.0" r="9.0" stroke="#000000" stroke-width="4.0" fill="none" />
<circle cx="720.0" cy="240.0" r="2.0" stroke="#0000b2" stroke-width="4.0" fill="#0000b2" />
<circle cx="720.0" cy="280.0" r="2.0" stroke="#0000b2" stroke-width="4.0" fill="#0000b2" />
<circle cx="820.0" cy="260.0" r="2.0" stroke="#b20000" stroke-width="4.0" fill="#b20000" />
</g>
<g>
<path d="M 209,125 L 239,125 L 239,155 L 209,155 Z" stroke="#000000" stroke-width="4.0" fill="none"/>
<circle cx="224.0" cy="140.0" r="9.0" stroke="#000000" stroke-width="4.0" fill="none" />
<text text-anchor="end" x="195.0" y="149.0" fill="#000000" style="font-size:24px"><tspan style="font-style:italic;">A</tspan></text>
<circle cx="240.0" cy="140.0" r="2.0" stroke="#b20000" stroke-width="4.0" fill="#b20000" />
</g>
<g>
<path d="M 209,265 L 239,265 L 239,295 L 209,295 Z" stroke="#000000" stroke-width="4.0" fill="none"/>
<circle cx="224.0" cy="280.0" r="9.0" stroke="#000000" stroke-width="4.0" fill="none" />
<text text-anchor="end" x="195.0" y="289.0" fill="#000000" style="font-size:24px"><tspan style="font-style:italic;">B</tspan></text>
<circle cx="240.0" cy="280.0" r="2.0" stroke="#b20000" stroke-width="4.0" fill="#b20000" />
</g>
<g>
<path d="M 209,325 L 239,325 L 239,355 L 209,355 Z" stroke="#000000" stroke-width="4.0" fill="none"/>
<circle cx="224.0" cy="340.0" r="9.0" stroke="#000000" stroke-width="4.0" fill="none" />
<text text-anchor="end" x="195.0" y="349.0" fill="#000000" style="font-size:24px"><tspan style="font-style:italic;">C</tspan></text>
<circle cx="240.0" cy="340.0" r="2.0" stroke="#b20000" stroke-width="4.0" fill="#b20000" />
</g>
<g>
<circle cx="876.0" cy="260.0" r="9.0" stroke="#000000" stroke-width="4.0" fill="none" />
<circle cx="876.0" cy="260.0" r="15.0" stroke="#000000" stroke-width="4.0" fill="none" />
<text text-anchor="start" x="905.0" y="269.0" fill="#000000" style="font-size:24px"><tspan style="font-style:italic;">S</tspan></text>
<circle cx="860.0" cy="260.0" r="2.0" stroke="#0000b2" stroke-width="4.0" fill="#0000b2" />
</g>
</g>
</svg>